<svg xmlns:xlink="http://www.w3.org/1999/xlink" xmlns="http://www.w3.org/2000/svg" aria-hidden="true" data-name="Layer 1" viewBox="0 0 24 24" role="img" width="32"  height="32" ><path fill="none" vector-effect="non-scaling-stroke" stroke="#181818" stroke-linecap="round" stroke-linejoin="round" stroke-width="1.5px" d="M19.28 21h-6.9a1.6 1.6 0 01-1.73-1.5v-4a1.6 1.6 0 011.73-1.5h6.9A1.59 1.59 0 0121 15.5v4a1.66 1.66 0 01-1.72 1.5z"></path><path fill="none" vector-effect="non-scaling-stroke" stroke="#181818" stroke-linecap="round" stroke-linejoin="round" stroke-width="1.5px" d="M16.9 12h-2.15a.65.65 0 00-.72.66V14h3.59v-1.34a.65.65 0 00-.72-.66z"></path><line x1="10.65" x2="21" y1="17.29" y2="17.29" fill="none" vector-effect="non-scaling-stroke" stroke="#181818" stroke-linecap="round" stroke-linejoin="round" stroke-width="1.5px"></line><circle cx="10.04" cy="5.73" r="2.73" fill="none" vector-effect="non-scaling-stroke" stroke="#181818" stroke-linecap="round" stroke-linejoin="round" stroke-width="1.5px"></circle><path fill="none" vector-effect="non-scaling-stroke" stroke="#181818" stroke-linecap="round" stroke-linejoin="round" stroke-width="1.5px" d="M3 18.45v-.9a7 7 0 017-7h.09a6.73 6.73 0 011.91.27"></path></svg>